HIERARCHY
ROOT Hips
{
	OFFSET 50.460899 -19.001415 96.010002
	CHANNELS 6 Xposition Yposition Zposition Xrotation Yrotation Zrotation
	JOINT spine
	{
		OFFSET 0.000000 -0.467661 8.132492
		CHANNELS 3 Xrotation Yrotation Zrotation
		JOINT spine1
		{
			OFFSET 0.000000 -0.000002 10.349800
			CHANNELS 3 Xrotation Yrotation Zrotation
			JOINT spine2
			{
				OFFSET 0.000000 -0.000002 9.916992
				CHANNELS 3 Xrotation Yrotation Zrotation
				JOINT Neck
				{
					OFFSET 0.000000 -1.213903 25.460999
					CHANNELS 3 Xrotation Yrotation Zrotation
					JOINT Head
					{
						OFFSET 0.000000 0.000000 7.692444
						CHANNELS 3 Xrotation Yrotation Zrotation
						End Site
						{
							OFFSET 0.000000 6.140626 18.619995
						}
					}
				}
				JOINT RightShoulder
				{
					OFFSET -4.175751 0.581444 10.709595
					CHANNELS 3 Xrotation Yrotation Zrotation
					JOINT RightArm
					{
						OFFSET 0.000000 -0.000002 14.046600
						CHANNELS 3 Xrotation Yrotation Zrotation
						JOINT RightArmRoll
						{
							OFFSET 0.000000 0.000000 7.090988
							CHANNELS 3 Xrotation Yrotation Zrotation
							JOINT RightForeArm
							{
								OFFSET 0.000000 -0.000004 20.653503
								CHANNELS 3 Xrotation Yrotation Zrotation
								JOINT RightForeArmRoll
								{
									OFFSET 0.000000 -0.000002 7.957184
									CHANNELS 3 Xrotation Yrotation Zrotation
									JOINT RightHand
									{
										OFFSET 0.000000 -0.000002 15.968292
										CHANNELS 3 Xrotation Yrotation Zrotation
										End Site
										{
											OFFSET 0.000000 0.000000 0.100006
										}
									}
								}
							}
						}
					}
				}
				JOINT LeftShoulder
				{
					OFFSET 4.175751 0.581444 10.709595
					CHANNELS 3 Xrotation Yrotation Zrotation
					JOINT LeftArm
					{
						OFFSET 0.000000 -0.000002 14.046600
						CHANNELS 3 Xrotation Yrotation Zrotation
						JOINT LeftArmRoll
						{
							OFFSET 0.000000 0.000000 7.090973
							CHANNELS 3 Xrotation Yrotation Zrotation
							JOINT LeftForeArm
							{
								OFFSET 0.000000 -0.000004 20.653503
								CHANNELS 3 Xrotation Yrotation Zrotation
								JOINT LeftForeArmRoll
								{
									OFFSET 0.000000 -0.000002 7.957184
									CHANNELS 3 Xrotation Yrotation Zrotation
									JOINT LeftHand
									{
										OFFSET 0.000000 -0.000002 15.968307
										CHANNELS 3 Xrotation Yrotation Zrotation
										End Site
										{
											OFFSET 0.000000 0.000000 0.100006
										}
									}
								}
							}
						}
					}
				}
			}
		}
	}
	JOINT RightUpLeg
	{
		OFFSET -7.208340 1.108841 -1.321823
		CHANNELS 3 Xrotation Yrotation Zrotation
		JOINT RightUpLegRoll
		{
			OFFSET 0.000000 -0.000004 18.723801
			CHANNELS 3 Xrotation Yrotation Zrotation
			JOINT RightLeg
			{
				OFFSET 0.000000 0.000004 -23.186600
				CHANNELS 3 Xrotation Yrotation Zrotation
				JOINT RightLegRoll
				{
					OFFSET 0.000000 -0.000004 23.262398
					CHANNELS 3 Xrotation Yrotation Zrotation
					JOINT RightFoot
					{
						OFFSET 0.000000 -0.000002 19.362106
						CHANNELS 3 Xrotation Yrotation Zrotation
						JOINT RightToeBase
						{
							OFFSET 0.000000 -0.000004 16.185699
							CHANNELS 3 Xrotation Yrotation Zrotation
							End Site
							{
								OFFSET 0.006859 0.903522 7.838623
							}
						}
					}
				}
			}
		}
	}
	JOINT LeftUpLeg
	{
		OFFSET 7.208340 1.108841 -1.321823
		CHANNELS 3 Xrotation Yrotation Zrotation
		JOINT LeftUpLegRoll
		{
			OFFSET 0.000000 -0.000004 18.723900
			CHANNELS 3 Xrotation Yrotation Zrotation
			JOINT LeftLeg
			{
				OFFSET 0.000000 -0.000004 23.186493
				CHANNELS 3 Xrotation Yrotation Zrotation
				JOINT LeftLegRoll
				{
					OFFSET 0.000000 -0.000004 23.477509
					CHANNELS 3 Xrotation Yrotation Zrotation
					JOINT LeftFoot
					{
						OFFSET 0.000000 -0.000002 19.147003
						CHANNELS 3 Xrotation Yrotation Zrotation
						JOINT LeftToeBase
						{
							OFFSET 0.000000 -0.000004 16.185699
							CHANNELS 3 Xrotation Yrotation Zrotation
							End Site
							{
								OFFSET -0.030746 0.903522 7.838623
							}
						}
					}
				}
			}
		}
	}
}
MOTION
Frames: 7
Frame Time: 0.041667
52.284203 -12.902018 95.905174 -3.901529 0.039847 0.976682 -0.666506 -0.418804 0.129782 2.670709 -0.827859 0.240190 4.315837 -0.824736 0.249985 14.592125 2.631459 -5.493464 1.677538 0.218105 -5.645387 -19.142952 -54.970664 -22.639092 -40.241200 -123.226831 -21.113136 -0.000005 -0.000000 -0.000002 5.506609 -8.190806 -0.390621 -0.000003 0.000001 -3.004959 -5.000220 -7.998981 0.000129 -14.609274 59.305009 17.269022 -42.687344 119.287779 34.100034 -0.000008 0.000004 0.000008 1.841967 9.388772 0.616854 0.000000 -0.000006 3.008570 -5.000239 7.998839 -0.000153 -2.296764 -173.509181 3.946086 -179.999991 0.000005 -0.940006 167.439683 -2.655979 -0.810517 -0.000004 0.000000 0.029359 70.010655 5.925048 4.628282 25.456860 -7.345857 -0.000001 -0.565934 175.115231 -0.066156 -0.000005 -0.000004 -0.894011 -12.358492 0.643473 0.770511 0.000004 -0.000003 -0.074113 71.916865 -5.511078 -5.777429 25.456931 7.351928 -0.000004 
52.268005 -12.909319 95.939003 -3.901060 0.041457 0.978518 -0.661970 -0.418805 0.130798 2.679790 -0.828719 0.243507 4.324919 -0.825576 0.253314 14.568990 2.639052 -5.498303 1.680111 0.207486 -5.649846 -19.153913 -54.955501 -22.652474 -40.199676 -123.217610 -21.065774 -0.000003 0.000000 -0.000003 5.511270 -8.191290 -0.390564 -0.000002 0.000001 -3.004962 -5.000221 -7.998981 0.000131 -14.557476 59.288883 17.207296 -42.611798 119.289554 34.010702 -0.000008 0.000004 0.000007 1.839628 9.384486 0.617711 -0.000000 -0.000006 3.008570 -5.000238 7.998838 -0.000154 -2.288542 -173.515137 3.941663 -179.999991 0.000005 -0.940006 167.455160 -2.651259 -0.808715 -0.000004 -0.000000 0.029347 70.005150 5.926270 4.624191 25.456861 -7.345857 -0.000001 -0.563888 175.113237 -0.070163 -0.000004 -0.000004 -0.894341 -12.350602 0.646604 0.770013 0.000006 -0.000003 -0.074114 71.911947 -5.514274 -5.768381 25.456930 7.351928 -0.000002 
52.285706 -12.910219 95.934593 -3.900882 0.043088 0.980382 -0.657378 -0.418805 0.131873 2.688982 -0.829614 0.246946 4.334122 -0.826451 0.256767 14.545351 2.646770 -5.503340 1.683057 0.196593 -5.654495 -19.165443 -54.940040 -22.666527 -40.157155 -123.209154 -21.017122 -0.000003 0.000001 -0.000002 5.516398 -8.191639 -0.390484 -0.000001 0.000001 -3.004959 -5.000221 -7.998981 0.000132 -14.503186 59.272286 17.142612 -42.535198 119.292191 33.919249 -0.000008 0.000004 0.000007 1.838435 9.379523 0.618624 -0.000000 -0.000007 3.008570 -5.000240 7.998839 -0.000153 -2.279418 -173.521092 3.937241 -179.999991 0.000004 -0.940006 167.471812 -2.647523 -0.808074 -0.000004 -0.000000 0.029329 69.999139 5.927557 4.619941 25.456860 -7.345858 -0.000002 -0.561204 175.110232 -0.074752 -0.000004 -0.000005 -0.894703 -12.342008 0.650212 0.769480 0.000005 -0.000003 -0.074114 71.906667 -5.517705 -5.758591 25.456928 7.351928 -0.000003 
52.275604 -12.892619 95.934685 -3.900902 0.044733 0.982267 -0.652744 -0.418807 0.132987 2.698274 -0.830533 0.250471 4.343403 -0.827350 0.260306 14.521418 2.654560 -5.508506 1.686290 0.185508 -5.659280 -19.177467 -54.924495 -22.681161 -40.114732 -123.200794 -20.968561 -0.000005 0.000000 -0.000003 5.521837 -8.191902 -0.390375 -0.000002 0.000000 -3.004961 -5.000221 -7.998980 0.000131 -14.447121 59.255279 17.075828 -42.458621 119.294855 33.827209 -0.000008 0.000005 0.000008 1.838065 9.374080 0.619578 -0.000001 -0.000006 3.008572 -5.000240 7.998839 -0.000152 -2.269635 -173.527035 3.932820 -179.999991 0.000005 -0.940007 167.489284 -2.642818 -0.806185 -0.000004 -0.000000 0.029308 69.992732 5.928921 4.615324 25.456861 -7.345857 -0.000002 -0.558065 175.107226 -0.079756 -0.000005 -0.000004 -0.895088 -12.332818 0.654154 0.768922 0.000006 -0.000003 -0.074113 71.901026 -5.521284 -5.748541 25.456931 7.351927 -0.000004 
52.278603 -12.898817 95.935982 -3.901029 0.046387 0.984164 -0.648089 -0.418807 0.134124 2.707595 -0.831466 0.254047 4.352735 -0.828262 0.263895 14.497285 2.662402 -5.513758 1.689678 0.174310 -5.664142 -19.189604 -54.908823 -22.695962 -40.071480 -123.193267 -20.918935 -0.000002 0.000001 -0.000002 5.527460 -8.192125 -0.390258 -0.000000 0.000001 -3.004961 -5.000220 -7.998981 0.000131 -14.390129 59.238149 17.007934 -42.382058 119.297600 33.734834 -0.000007 0.000003 0.000007 1.838148 9.368351 0.620552 0.000001 -0.000007 3.008570 -5.000237 7.998838 -0.000153 -2.259502 -173.533988 3.928447 -179.999991 0.000004 -0.940007 167.507248 -2.638121 -0.805287 -0.000005 -0.000000 0.029283 69.986128 5.930305 4.610721 25.456856 -7.345857 -0.000001 -0.554666 175.104235 -0.085001 -0.000005 -0.000005 -0.895486 -12.323226 0.658290 0.768347 0.000006 -0.000004 -0.074114 71.895309 -5.524952 -5.738007 25.456933 7.351927 -0.000002 
52.270504 -12.908817 95.935493 -3.901188 0.048043 0.986064 -0.643423 -0.418808 0.135269 2.716946 -0.832402 0.257635 4.362077 -0.829177 0.267498 14.473051 2.670254 -5.519021 1.693106 0.163083 -5.669030 -19.201948 -54.893219 -22.710973 -40.029037 -123.184921 -20.870353 -0.000003 0.000001 -0.000004 5.533129 -8.192316 -0.390144 -0.000001 0.000000 -3.004961 -5.000218 -7.998981 0.000132 -14.332870 59.220834 16.939726 -42.305649 119.300442 33.642520 -0.000009 0.000003 0.000007 1.838357 9.362553 0.621535 -0.000002 -0.000007 3.008569 -5.000241 7.998839 -0.000153 -2.249258 -173.539930 3.924024 -179.999991 0.000005 -0.940007 167.525307 -2.634396 -0.804590 -0.000004 -0.000000 0.029259 69.979427 5.931715 4.606029 25.456861 -7.345857 -0.000001 -0.551195 175.100219 -0.090302 -0.000004 -0.000004 -0.895888 -12.313638 0.662475 0.767766 0.000005 -0.000003 -0.074113 71.889496 -5.528684 -5.727491 25.456930 7.351926 -0.000003 
52.277405 -12.906322 95.933990 -3.901298 0.049696 0.987959 -0.638771 -0.418808 0.136403 2.726267 -0.833331 0.261202 4.371399 -0.830085 0.271078 14.449016 2.678098 -5.524247 1.696453 0.151905 -5.673868 -19.214068 -54.877554 -22.725744 -39.986718 -123.176656 -20.821883 -0.000003 0.000001 -0.000004 5.538722 -8.192538 -0.390028 0.000001 0.000001 -3.004961 -5.000220 -7.998981 0.000132 -14.276146 59.203629 16.872166 -42.227901 119.304007 33.548902 -0.000008 0.000004 0.000009 1.838361 9.356886 0.622505 0.000000 -0.000007 3.008570 -5.000238 7.998839 -0.000152 -2.239192 -173.545886 3.919611 -179.999991 0.000005 -0.940006 167.543270 -2.629696 -0.802687 -0.000004 -0.000000 0.029235 69.972822 5.933100 4.601424 25.456863 -7.345858 -0.000002 -0.547848 175.097213 -0.095503 -0.000004 -0.000005 -0.896284 -12.304148 0.666576 0.767191 0.000005 -0.000003 -0.074114 71.883780 -5.532353 -5.717060 25.456931 7.351928 -0.000003 
